<?xml version="1.0" encoding="utf-8"?>
<!-- Generator: Adobe Illustrator 17.1.0, SVG Export Plug-In . SVG Version: 6.00 Build 0)  -->
<!DOCTYPE svg PUBLIC "-//W3C//DTD SVG 1.1//EN" "http://www.w3.org/Graphics/SVG/1.1/DTD/svg11.dtd">
<svg version="1.1" id="Layer_1" xmlns="http://www.w3.org/2000/svg" xmlns:xlink="http://www.w3.org/1999/xlink" x="0px" y="0px"
	 viewBox="0 0 600 600" enable-background="new 0 0 600 600" xml:space="preserve">
<circle opacity="0.3" enable-background="new    " cx="305.5" cy="298" r="275.5"/>
<g>
	<g>
		<path fill="#FFFFFF" d="M301.2,41.5c142.1,0,257.7,115.6,257.7,257.7S443.3,556.8,301.2,556.8S43.6,441.2,43.6,299.2
			S159.2,41.5,301.2,41.5 M301.2,18.2c-155.1,0-280.9,125.8-280.9,281c0,155.1,125.8,280.9,280.9,280.9s280.9-125.8,280.9-280.9
			C582.1,144,456.4,18.2,301.2,18.2L301.2,18.2z"/>
	</g>
	<g>
		<rect x="196.7" y="210" fill="#FFFFFF" width="209.1" height="23.2"/>
		<rect x="196.7" y="287.5" fill="#FFFFFF" width="209.1" height="23.2"/>
		<rect x="196.7" y="365" fill="#FFFFFF" width="209.1" height="23.2"/>
	</g>
</g>
</svg>
